<?xml version="1.0" standalone="no"?><!DOCTYPE svg PUBLIC "-//W3C//DTD SVG 1.1//EN"
        "http://www.w3.org/Graphics/SVG/1.1/DTD/svg11.dtd">
<svg t="1697075178006" class="icon" viewBox="0 0 1024 1024" version="1.1" xmlns="http://www.w3.org/2000/svg"
     p-id="20153" width="200" height="200">
    <path d="M664.325357 888.965017c-19.701387 0-36.039122-16.337735-36.039122-36.039122s16.337735-36.039122 36.039122-36.039122h192.208652c19.701387 0 36.039122 16.337735 36.039123 36.039122s-16.337735 36.039122-36.039123 36.039122h-192.208652z"
          fill="#409EFF" p-id="20154"></path>
    <path d="M499.506438 498.300931c-2.88313-0.480522-5.76626 0-8.64939 0-139.351273-4.324695-244.58551-113.883627-244.58551-248.910205C246.271538 111.96154 358.233078 0 495.662265 0c137.429186 0 249.390726 111.96154 249.390726 249.390726-0.480522 135.026578-106.19528 244.58551-240.260815 248.910205h-5.285738zM318.349783 249.390726c0 96.104326 74.961374 173.468309 170.585179 176.831961 2.88313-0.480522 9.129911-0.480522 15.376692 0 94.18224-4.324695 168.182571-81.688677 168.663092-176.831961A177.793003 177.793003 0 0 0 495.662265 72.078245a177.793003 177.793003 0 0 0-177.312482 177.312481z"
          fill="#409EFF" p-id="20155"></path>
    <path d="M234.739019 951.432829C167.946512 906.744318 131.426868 845.718071 131.426868 779.886607c0-65.831463 37.000166-126.377189 103.312151-170.585179 143.675968-96.104326 377.20948-96.104326 520.885448 0 16.337735 11.051998 21.142952 33.636514 10.090954 49.97425-11.051998 16.818257-33.636514 21.142952-49.974249 10.090954-119.649886-79.766591-321.468971-79.766591-441.118858 0-46.130077 30.753384-71.117201 69.675636-71.117201 110.519975 0 40.844339 24.987125 80.727634 71.117201 111.481019 58.143117 38.922252 136.468143 60.065204 220.559429 60.065203a36.279383 36.279383 0 0 1 0.480522 72.558767c-98.026413 0-190.767088-25.467646-260.923246-72.558767z"
          fill="#66b1ff" p-id="20156"></path>
</svg>